#!OML:ASF H:\Terrain\Patient Classification 1\Takeo\Monday\TakeoMonday.ASF
:FULLY-SPECIFIED
:DEGREES
83
root 11.0518 17.5818 -2.70238 13.4644 -19.8375 4.63889
lowerback 24.191 -0.159975 5.94218
upperback 12.4196 0.824726 2.35278
thorax 0.324326 0.517928 -1.0259
lowerneck -10.546 -4.2602 -3.82723
upperneck 10.1389 -5.08238 -0.408954
head 4.85864 -2.66017 0.121402
rclavicle -3.81667e-014 1.27222e-014
rhumerus 6.172 24.6887 -65.2712
rradius 55.1283
rwrist -3.33686
rhand -31.2898 33.2635
rfingers 7.12502
rthumb -4.56294 3.33262
lclavicle -3.81667e-014 1.27222e-014
lhumerus -23.5062 -2.66412 91.7347
lradius 66.1324
lwrist 33.3577
lhand -21.1882 17.4971
lfingers 7.12502
lthumb 5.19264 47.4134
rfemur -37.9912 5.61145 9.73068
rtibia 31.7042
rfoot -7.32153 -10.3885
rtoes -5.62594
lfemur -34.7753 13.132 -31.8054
ltibia 30.6218
lfoot -10.7671 14.2654
ltoes 0.997691
84
root 11.0715 17.5524 -2.74531 14.488 -19.7287 4.38781
lowerback 24.5363 -0.260049 6.57876
upperback 12.7466 0.825751 2.49703
thorax 0.549675 0.5493 -1.22662
lowerneck -10.587 -4.34963 -4.17382
upperneck 9.47674 -5.19412 -0.0516627
head 4.68093 -2.70039 0.285432
rclavicle -2.38542e-014 -1.98785e-014
rhumerus 7.87808 24.3746 -64.2644
rradius 54.4667
rwrist -4.33966
rhand -32.3665 34.7977
rfingers 7.12502
rthumb -5.6026 4.89174
lclavicle -2.38542e-014 -1.98785e-014
lhumerus -23.1577 -3.01932 91.6093
lradius 67.1671
lwrist 33.3865
lhand -20.7623 17.7464
lfingers 7.12502
lthumb 5.60385 47.6523
rfemur -39.5255 5.45338 9.82086
rtibia 32.3577
rfoot -7.43819 -10.3436
rtoes -5.43978
lfemur -36.4121 13.5237 -32.1094
ltibia 31.2809
lfoot -10.7739 13.6858
ltoes 0.162817
85
root 11.0884 17.5254 -2.79761 15.4857 -19.6892 4.08044
lowerback 25.0003 -0.246141 7.10527
upperback 13.1186 0.956475 2.71332
thorax 0.777907 0.637756 -1.31645
lowerneck -10.7805 -4.57214 -3.90876
upperneck 8.73673 -5.47395 -0.588521
head 4.46672 -2.85635 0.0636704
rclavicle -3.49861e-014 -3.49861e-014
rhumerus 9.54557 23.6642 -63.1794
rradius 53.9477
rwrist -4.65254
rhand -32.9327 35.5101
rfingers 7.12502
rthumb -6.14923 5.6193
lclavicle -3.49861e-014 -3.49861e-014
lhumerus -22.5865 -3.45326 91.4985
lradius 68.1736
lwrist 33.4756
lhand -20.4897 17.9313
lfingers 7.12502
lthumb 5.86699 47.8301
rfemur -41.0978 5.38645 9.97277
rtibia 33.0715
rfoot -7.47523 -10.1657
rtoes -4.70292
lfemur -38.1043 13.8972 -32.2667
ltibia 31.8801
lfoot -10.8139 12.9794
ltoes 0.873305
86
root 11.1003 17.4864 -2.85224 16.1096 -20.04 4.66237
lowerback 25.6552 -0.0930459 6.47433
upperback 13.3714 1.04991 2.79381
thorax 0.732457 0.646414 -0.898668
lowerneck -10.3978 -4.58905 -3.93427
upperneck 7.47661 -5.47352 -1.12904
head 4.44562 -2.87696 -0.0730668
rclavicle -4.77083e-014 3.33958e-014
rhumerus 11.2879 23.3867 -61.9719
rradius 53.3068
rwrist -4.90932
rhand -33.5363 35.9913
rfingers 7.12502
rthumb -6.73195 6.11829
lclavicle -4.77083e-014 3.33958e-014
lhumerus -22.3839 -3.50594 91.4996
lradius 69.149
lwrist 33.5812
lhand -20.5894 17.7362
lfingers 7.12502
lthumb 5.77078 47.6376
rfemur -42.7138 5.35695 9.16014
rtibia 33.8026
rfoot -7.24207 -9.94476
rtoes -4.72496
lfemur -39.6801 14.382 -33.4251
ltibia 32.4392
lfoot -10.8928 12.3993
ltoes 1.06407
87
root 11.1143 17.4442 -2.88664 16.7459 -20.3593 5.36706
lowerback 26.0841 -0.095245 5.78702
upperback 13.5709 0.917886 2.85515
thorax 0.722048 0.542131 -0.4139
lowerneck -9.91848 -4.38179 -4.88185
upperneck 7.02874 -5.12643 -0.795497
head 4.22614 -2.71131 0.250167
rclavicle 3.02153e-014 -6.75868e-014
rhumerus 13.1581 23.5945 -60.684
rradius 52.6163
rwrist -4.99241
rhand -34.0801 36.3788
rfingers 7.12502
rthumb -7.25691 6.52327
lclavicle 3.02153e-014 -6.75868e-014
lhumerus -22.5234 -3.15635 91.5658
lradius 70.1658
lwrist 33.7118
lhand -20.6425 17.2272
lfingers 7.12502
lthumb 5.7195 47.13
rfemur -44.2936 5.10482 8.25439
rtibia 34.5579
rfoot -7.40486 -9.70028
rtoes -5.42609
lfemur -41.1117 14.7924 -34.8229
ltibia 32.9758
lfoot -10.9491 11.9099
ltoes -0.405963
